<svg width="170" height="70" viewBox="0 0 170 70" fill="none" xmlns="http://www.w3.org/2000/svg">
<path d="M101.089 60.0326L100.869 26.1434C100.816 18.6184 103.639 13.7489 109.491 11.2608C111.942 10.3145 114.552 9.84952 117.179 9.89125C119.645 9.8779 122.106 10.133 124.517 10.6521V15.1641C123.33 15.0354 122.137 14.9719 120.943 14.9739C108.838 15.0499 108.899 24.7739 108.944 31.2032L109.134 59.9184L101.089 60.0326Z" fill="#32409A"/>
<path d="M34.9107 60.2609C18.9732 60.2609 9.10715 50.8185 9.10715 35.6164C9.10715 20.4142 20.4228 10.0283 37.2634 10.0283C39.8648 10.0289 42.46 10.2837 45.0121 10.7892V15.2707C42.6012 14.7309 40.1357 14.4755 37.6656 14.5098C31.8067 14.5098 26.775 16.4729 23.1094 20.1783C19.4438 23.8838 17.4554 29.2022 17.4554 35.0761C17.4554 47.0674 25.8036 55.4598 37.6656 55.4598C40.1344 55.4674 42.597 55.2123 45.0121 54.699V59.0055C41.7072 59.8277 38.3158 60.2492 34.9107 60.2609Z" fill="#32409A"/>
<path d="M141.161 60.2684C137.111 60.216 133.092 59.5674 129.23 58.3434V54.0217C133.082 55.4569 137.138 56.266 141.244 56.4184C148.78 56.4184 153.281 53.0478 153.281 47.4097C153.281 41.5282 149.152 38.9869 142.026 36.5901C135.856 34.551 128.547 30.6934 128.737 23.8912C128.737 15.2325 135.211 9.89883 145.631 9.89883C149.102 9.86944 152.541 10.572 155.725 11.9608V15.2173C152.979 14.1338 150.061 13.5564 147.111 13.513C140.463 13.513 136.159 16.9445 136.159 22.2477C136.159 28.1521 141.54 30.4499 148.052 32.6488C156.946 35.7532 160.787 39.8314 160.878 46.2684C160.893 55.0336 153.524 60.2684 141.161 60.2684Z" fill="#32409A"/>
<path d="M72.0451 60.1772C57.6255 59.1196 49.2165 50.2859 49.2165 35.9359C49.2165 23.9142 56.4036 10.6446 72.1817 9.93701H73.6161C93.0598 9.93701 94.5701 27.7414 94.5701 33.1968C94.5701 34.1707 94.5701 35.0457 94.4942 35.7685H56.6616L56.7375 38.9109C56.9197 47.4174 62.4371 53.5881 71.438 55.4142C73.273 55.7564 75.1344 55.9372 77.0009 55.9544C81.02 56.0037 85.0305 55.5694 88.9464 54.6609V58.3968C84.4167 59.5938 79.75 60.1898 75.0656 60.1696L72.0451 60.1772ZM71.7795 13.1631C61.9134 13.5055 57.5116 21.9435 56.7527 29.0577L56.3808 32.4511H87.383L87.4438 29.4457C87.4438 27.6653 87.2692 21.5174 83.0192 17.1729C80.4085 14.5022 76.9478 13.1479 72.7205 13.1479H71.9161L71.7795 13.1631Z" fill="#32409A"/>
</svg>
