<svg width="200" height="200" viewBox="0 0 200 200" fill="none" xmlns="http://www.w3.org/2000/svg">
<path d="M126.2 123.6C125.8 124.2 125.6 124.8 125.2 125.6C150.2 129 168.4 137.4 168.4 146.8C168.4 159.2 137 169.6 100 169.6C63 169.6 31.6 159.2 31.6 146.8C31.6 137.4 49.8 129 74.8 125.6C74.4 125 74.2 124.4 73.8 123.6C47.6 127 29.6 136 29.6 146.6C29.6 160.6 60.6 171.4 100 171.4C139.4 171.4 170.4 160.4 170.4 146.6C170.4 136 152.4 127 126.2 123.6Z" fill="white"/>
<path d="M100 22.3999C77.2 22.3999 58.8 40.9999 58.8 63.5999C58.8 72.9999 65.8 89.3999 73.8 105.6C74.2 106.2 74.4 106.8 74.8 107.6C84 125.8 94.6 143 98 148.6C98.4 149.2 99.2 149.6 100 149.6C100.8 149.6 101.6 149.2 102 148.6C105.4 143 116 125.8 125.2 107.6C125.6 107 125.8 106.4 126.2 105.6C134.4 89.5999 141.2 72.9999 141.2 63.5999C141.2 40.7999 122.8 22.3999 100 22.3999ZM124 105.2C123.6 105.8 123.4 106.6 123 107.2C113.8 125 103.6 141.8 100.2 147.4C100 147.6 99.8 147.6 99.6 147.4C96.2 142 86 125 76.8 107.2C76.4 106.6 76.2 105.8 75.8 105.2C67.6 89.1999 60.6 72.7999 60.6 63.5999C60.6 41.9999 78.2 24.3999 99.8 24.3999C121.4 24.3999 139.2 41.9999 139.2 63.5999C139.2 72.7999 132.2 89.1999 124 105.2Z" fill="white"/>
<path d="M100 83.1998C110.604 83.1998 119.2 74.6037 119.2 63.9998C119.2 53.3959 110.604 44.7998 100 44.7998C89.3961 44.7998 80.8 53.3959 80.8 63.9998C80.8 74.6037 89.3961 83.1998 100 83.1998Z" stroke="white" stroke-miterlimit="10"/>
</svg>
