<svg width="150" height="150" viewBox="0 0 150 150" fill="none" xmlns="http://www.w3.org/2000/svg">
<path d="M145.95 121.05C145.5 121.65 144.9 121.95 144.3 121.95L138.3 122.55C137.1 122.7 135.15 122.85 132.9 122.85C133.35 124.2 133.65 125.55 133.8 127.05C133.95 127.8 133.65 128.55 133.2 129.3C132.75 129.9 132 130.35 131.25 130.35L124.35 131.1C122.55 131.4 118.65 131.4 115.05 131.4C112.35 131.4 109.95 131.4 108.6 131.25L101.55 130.35C100.8 130.35 100.05 129.9 99.6 129.3C99.15 128.7 99 127.8 99 127.05C99.15 125.7 99.45 124.5 99.9 123.15C98.55 123.15 97.35 123.15 96.6 123L90.6 122.25C90 122.25 89.4 121.8 88.95 121.35C88.5 120.75 88.35 120.15 88.5 119.4C89.25 113.55 92.7 108.9 97.65 106.95C97.95 107.25 98.25 107.55 98.55 107.85C93.6 109.5 90.15 113.85 89.55 119.4C89.55 119.7 89.55 120.15 89.85 120.45C90 120.75 90.45 120.9 90.75 120.9L96.75 121.65C97.5 121.8 98.85 121.8 100.35 121.8C102.15 117.45 105.45 114.15 109.8 112.5C110.1 112.95 110.55 113.25 110.85 113.55C106.8 114.9 103.65 117.9 101.85 121.8C101.7 122.25 101.55 122.55 101.4 123C100.95 124.2 100.65 125.55 100.5 127.05C100.5 127.5 100.5 127.8 100.8 128.25C101.1 128.55 101.4 128.85 101.85 128.85L108.9 129.75C111.9 130.05 121.35 130.05 124.35 129.6L131.25 128.85C131.7 128.85 132 128.55 132.3 128.25C132.6 127.95 132.6 127.5 132.6 127.05C132.45 125.55 132 124.05 131.55 122.7C131.4 122.25 131.25 121.8 130.95 121.5C129.15 117.75 126 114.9 122.1 113.55C122.55 113.25 122.85 112.8 123.15 112.5C127.35 114.15 130.65 117.3 132.45 121.5C134.85 121.5 137.1 121.35 138.3 121.2L144.3 120.6C144.6 120.6 144.9 120.45 145.2 120.15C145.35 119.85 145.5 119.55 145.5 119.25C144.9 113.7 141.3 109.35 136.5 107.7C136.8 107.4 137.1 107.1 137.4 106.8C142.35 108.75 145.95 113.4 146.55 119.25C146.55 119.85 146.4 120.45 145.95 121.05Z" fill="black"/>
<path d="M137.4 94.0503C136.5 93.0003 135.3 92.1003 133.95 91.5003C133.2 91.2003 132.3 91.0503 131.55 91.0503C129.75 91.0503 128.1 91.8003 126.75 93.0003C126 93.7503 125.4 94.5003 124.8 95.5503C124.35 96.4503 124.05 97.6503 123.9 98.7003C122.25 96.1503 119.7 94.5003 116.7 94.5003C116.55 94.5003 116.25 94.5003 116.1 94.5003C114.9 94.6503 113.85 94.9503 112.8 95.5503C112.2 95.8503 111.45 96.4503 111 96.9003C109.95 93.7503 107.1 91.3503 103.8 91.3503C99.6 91.3503 96.15 95.2503 96.15 99.9003C96.15 100.8 96.3 101.7 96.45 102.45C96.6 102.9 96.75 103.2 96.9 103.65C97.2 104.4 97.65 105 98.1 105.6C98.4 105.9 98.7 106.2 99 106.5C100.35 107.7 102 108.45 103.8 108.45C105.45 108.45 106.95 107.85 108.15 106.95C108.45 108.45 109.2 109.95 110.25 111C110.55 111.45 111 111.75 111.3 112.2C112.65 113.4 114.3 114.15 116.1 114.3C116.4 114.3 116.55 114.3 116.85 114.3C117 114.3 117.3 114.3 117.45 114.3C117.75 114.3 117.9 114.3 118.05 114.3C118.5 114.15 119.1 114.15 119.55 113.85C120.6 113.55 121.5 112.95 122.4 112.2C122.85 111.9 123.15 111.45 123.45 111C124.05 110.25 124.65 109.35 125.1 108.3C125.7 108 126.3 107.7 127.05 107.4C126.75 107.1 126.45 106.8 126.15 106.5C126 106.65 125.85 106.65 125.55 106.8C125.7 106.2 125.85 105.6 125.85 105C126 105.15 126 105.3 126.15 105.45C126.45 105.75 126.75 106.2 127.05 106.35C128.4 107.55 130.05 108.3 131.85 108.3C133.65 108.3 135.3 107.55 136.65 106.35C136.95 106.05 137.25 105.75 137.55 105.45C138 105 138.3 104.4 138.6 103.8C138.75 103.5 138.9 103.05 139.05 102.6C139.35 101.7 139.5 100.65 139.5 99.7503C139.2 97.5003 138.6 95.5503 137.4 94.0503ZM107.85 102.6C107.85 103.05 107.7 103.35 107.7 103.8C107.7 104.1 107.7 104.25 107.7 104.55C107.7 105 107.7 105.45 107.85 105.75C107.55 105.9 107.4 106.2 107.1 106.35C106.05 106.95 105 107.4 103.65 107.4C102.45 107.4 101.25 106.95 100.2 106.35C99.75 106.05 99.45 105.75 99 105.45C98.55 105 98.25 104.4 97.8 103.8C97.5 103.5 97.35 103.05 97.2 102.6C96.9 101.85 96.75 100.95 96.75 100.05C96.75 96.0003 99.75 92.7003 103.35 92.7003C106.35 92.7003 108.9 94.9503 109.65 97.9503C108.9 99.1503 108.15 100.8 107.85 102.6ZM123.75 107.7C123.45 108.75 122.85 109.5 122.25 110.25C122.1 110.4 122.1 110.55 121.95 110.55C121.65 110.85 121.5 111 121.2 111.3C121.05 111.45 120.75 111.6 120.6 111.75C120 112.05 119.4 112.5 118.8 112.65C118.05 112.95 117.45 112.95 116.7 112.95H116.55C116.1 112.95 115.5 112.8 115.05 112.8C114.3 112.65 113.55 112.2 112.8 111.75C112.35 111.45 111.9 111 111.45 110.7C110.85 110.1 110.4 109.35 109.95 108.6C109.65 108.15 109.5 107.55 109.35 107.1C109.2 106.8 109.2 106.5 109.05 106.05C108.9 105.6 108.9 105 108.9 104.4V104.25C108.9 104.1 108.9 103.8 108.9 103.65C108.9 103.2 109.05 102.9 109.05 102.45C109.2 101.4 109.65 100.5 110.1 99.6003C110.4 99.1503 110.7 98.7003 111.15 98.2503C112.5 96.7503 114.45 95.7003 116.55 95.7003C120.15 95.7003 123.3 98.5503 124.05 102.3C124.2 102.75 124.2 103.05 124.2 103.5C124.2 103.8 124.2 103.95 124.2 104.25C124.35 105.6 124.05 106.8 123.75 107.7ZM136.95 103.8C136.65 104.25 136.35 104.7 136.05 105.15C135.75 105.45 135.3 105.9 134.85 106.05C133.8 106.65 132.75 107.1 131.4 107.1C130.2 107.1 129 106.65 127.95 106.05C127.5 105.75 127.2 105.45 126.75 105.15C126.45 104.7 126 104.4 125.85 103.8C125.55 103.5 125.4 103.05 125.25 102.6C125.25 102.45 125.1 102.3 125.1 102.15C124.95 101.85 124.95 101.55 124.8 101.25C124.65 100.8 124.65 100.2 124.65 99.7503C124.65 98.2503 125.1 96.7503 125.85 95.5503C126 95.2503 126.15 94.9503 126.45 94.8003C127.65 93.3003 129.3 92.4003 131.25 92.4003C132.15 92.4003 132.9 92.5503 133.65 93.0003C134.85 93.6003 135.9 94.5003 136.65 95.7003C137.4 96.9003 137.85 98.4003 137.85 99.9003C137.85 100.95 137.7 101.85 137.25 102.75C137.4 103.05 137.25 103.35 136.95 103.8Z" fill="black"/>
<path d="M94.8 102.6H87.3V103.8H95.25C95.1 103.35 94.95 103.05 94.8 102.6ZM125.1 34.9503L105.45 44.5503V55.8003H76.65L74.25 24.3003H59.4L57 55.8003H55.5C55.5 56.1003 55.5 56.4003 55.5 56.7003C55.5 56.8503 55.5 56.8503 55.5 57.0003H58.05L58.2 55.8003L60.45 25.5003H73.05L75.3 55.8003H67.95L67.8 57.0003H106.8V45.3003L125.25 36.3003L143.7 45.3003V102.6H140.55C140.4 103.05 140.25 103.35 140.1 103.8H144.9V44.5503L125.1 34.9503ZM47.1 102.6V80.5503C46.95 80.8503 46.8 81.3003 46.5 81.6003C46.35 82.0503 46.05 82.3503 45.9 82.8003V82.9503V103.8H49.35V102.6H47.1Z" fill="black"/>
<path d="M64.35 62.5503H55.35V66.0003H64.35V62.5503Z" fill="black"/>
<path d="M76.95 62.5503H67.95V66.0003H76.95V62.5503Z" fill="black"/>
<path d="M89.55 62.5503H80.55V66.0003H89.55V62.5503Z" fill="black"/>
<path d="M102.3 62.5503H93.3V66.0003H102.3V62.5503Z" fill="black"/>
<path d="M116.035 59.9292V50.9292H112.585V59.9292H116.035Z" fill="black"/>
<path d="M115.977 77.7207V68.7207H112.527V77.7207H115.977Z" fill="black"/>
<path d="M115.95 86.5503V93.0003C114.75 93.1503 113.7 93.4503 112.65 94.0503H112.5V86.7003H115.95V86.5503Z" fill="black"/>
<path d="M126.722 59.8926V50.8926H123.272V59.8926H126.722Z" fill="black"/>
<path d="M126.663 77.6841V68.6841H123.213V77.6841H126.663Z" fill="black"/>
<path d="M126.75 86.5503V91.5003C126 92.2503 125.4 93.0003 124.8 94.0503H123.3V86.7003H126.75V86.5503Z" fill="black"/>
<path d="M137.408 60.0059V51.0059H133.958V60.0059H137.408Z" fill="black"/>
<path d="M137.35 77.7979V68.7979H133.9V77.7979H137.35Z" fill="black"/>
<path d="M137.4 86.5503V92.5503C136.5 91.3503 135.3 90.4503 133.95 90.0003V86.5503H137.4Z" fill="black"/>
<path d="M67.2 19.9497C70.95 18.2997 75.75 13.9497 86.1 16.7997C88.8 17.5497 91.95 19.4997 93.9 20.5497C98.55 15.8997 100.8 14.3997 107.7 13.9497" stroke="black" stroke-miterlimit="10" stroke-linecap="round" stroke-linejoin="round"/>
<path d="M72.3 105.9H64.2C64.05 105.9 64.05 105.75 64.05 105.6C64.05 105.45 64.2 105.3 64.2 105.3H72.15C72.3 105.3 72.3 105.45 72.3 105.6C72.3 105.75 72.45 105.9 72.3 105.9Z" fill="black"/>
<path d="M87 82.8H86.1C85.8 82.8 85.5 83.1 85.5 83.55V84.15H84.15V82.05C84.15 81.3 83.55 80.85 82.95 80.85H81.3V76.8C81.3 76.65 81.15 76.5 81 76.5H79.8C79.65 76.5 79.5 76.65 79.5 76.8V80.85H78.6L77.55 78.3C77.55 78.15 77.4 78.15 77.25 78.15H59.55C59.4 78.15 59.4 78.15 59.25 78.3L58.2 80.85H57.3V76.8C57.3 76.65 57.15 76.5 57 76.5H55.8C55.65 76.5 55.5 76.65 55.5 76.8V80.85H54C53.25 80.85 52.8 81.45 52.8 82.05V84.15H51.3V83.55C51.3 83.1 51 82.8 50.7 82.8H49.5C49.2 82.8 48.9 83.1 48.9 83.55V89.4C48.9 89.85 49.2 90.15 49.5 90.15H50.4C50.85 90.15 51 89.85 51 89.4V84.6H52.5V92.7C52.5 93 52.65 93.3 52.8 93.45C52.5 94.05 52.35 94.65 52.35 95.4V106.8C52.35 107.25 52.5 107.85 52.65 108.3H52.5C51.9 108.3 51.45 108.75 51.45 109.5V110.7C51.45 111.3 51.9 111.9 52.5 111.9H53.55C53.55 112.05 53.55 112.2 53.55 112.35V113.55C53.55 114 53.85 114.45 54.3 114.45H56.7C57.15 114.45 57.45 114 57.45 113.55V112.35C57.45 112.2 57.45 112.05 57.3 111.9H79.05C78.9 112.05 78.9 112.2 78.9 112.35V113.55C78.9 114 79.2 114.45 79.65 114.45H82.05C82.5 114.45 82.8 114 82.8 113.55V112.35C82.8 112.2 82.8 112.05 82.65 111.9H83.85C84.45 111.9 84.9 111.45 84.9 110.7V109.5C84.9 108.9 84.45 108.3 83.85 108.3H83.55C83.7 107.85 83.85 107.25 83.85 106.8V95.4C83.85 94.8 83.7 94.05 83.55 93.6C83.85 93.3 84 93 84 92.7V84.6H85.35V89.4C85.35 89.85 85.65 90.15 85.95 90.15H87C87.3 90.15 87.6 89.85 87.6 89.4V83.55C87.6 83.1 87.45 82.8 87 82.8ZM50.55 89.4C50.55 89.55 50.4 89.7 50.4 89.7H49.5C49.5 89.7 49.35 89.55 49.35 89.4V83.55C49.35 83.4 49.5 83.25 49.5 83.25H50.4C50.4 83.25 50.55 83.4 50.55 83.55V89.4ZM81.9 103.65C81.75 103.35 81.75 103.05 81.6 102.6C81.3 101.55 81 100.2 80.7 98.4H83.55V103.65H81.9ZM83.55 104.1V105.9C83.1 105.75 82.65 105.3 82.05 104.1H83.55ZM80.7 97.95C80.55 97.35 80.55 96.75 80.4 96C80.4 96 80.4 96 80.4 95.85H83.7V97.95H80.7ZM79.8 76.95H80.55V80.7H79.8V76.95ZM59.7 78.6H77.1L78 80.7H58.8L59.7 78.6ZM56.1 76.95H56.85V80.7H56.1V76.95ZM53.25 81.9C53.25 81.45 53.55 81.15 54 81.15H82.8C83.25 81.15 83.55 81.45 83.55 81.9V92.7C83.55 92.85 83.55 93 83.4 93.15C83.25 93.3 83.25 93.45 83.1 93.45C82.95 93.45 82.95 93.45 82.8 93.45H54C53.85 93.45 53.7 93.45 53.55 93.3C53.4 93.15 53.25 93.15 53.25 92.85C53.25 92.7 53.25 92.7 53.25 92.55V81.9ZM53.1 95.85H56.25C56.25 96.45 56.1 97.05 55.95 97.95H52.95V95.85H53.1ZM53.1 98.4H55.95C55.8 99.75 55.5 101.25 55.05 102.6C54.9 102.9 54.75 103.35 54.75 103.65H53.1V98.4ZM53.1 104.1H54.45C54 105 53.55 105.75 53.1 105.9V104.1ZM53.1 106.5C54 106.2 54.6 105.15 55.2 103.8C55.35 103.35 55.5 103.05 55.65 102.6C56.55 99.6 56.85 95.85 56.85 95.55V95.4L56.7 95.25H53.25C53.25 94.65 53.4 94.2 53.55 93.75C53.7 93.9 54 93.9 54.15 93.9H82.95C83.1 93.9 83.25 93.9 83.4 93.75C83.55 94.2 83.7 94.65 83.7 95.25H80.25C80.1 95.25 79.95 95.4 79.95 95.55C79.95 95.55 79.95 95.55 79.95 95.7C79.95 95.7 79.95 95.85 79.95 96C80.25 98.7 80.7 100.95 81.15 102.6C81.3 103.05 81.45 103.5 81.6 103.8C82.2 105.45 82.95 106.35 83.7 106.5V106.8C83.7 107.25 83.55 107.85 83.4 108.3H75.3C75.3 108.15 75.3 108.15 75.3 108V99.9C75.3 99.45 75 99.15 74.7 99.15H62.25C61.8 99.15 61.65 99.45 61.65 99.9V108C61.65 108.15 61.65 108.15 61.65 108.3H53.4C53.25 107.85 53.1 107.4 53.1 106.8V106.5ZM74.7 100.05V108.15C74.7 108.3 74.55 108.45 74.55 108.45H62.1C61.95 108.45 61.95 108.3 61.95 108.15V100.05C61.95 99.9 62.1 99.75 62.1 99.75H74.55C74.7 99.75 74.7 99.9 74.7 100.05ZM57 113.55C57 113.7 56.85 114 56.7 114H54.3C54.15 114 54 113.85 54 113.55V112.35C54 111.9 54.15 111.9 54.3 111.9H56.7C56.85 111.9 57 112.05 57 112.35V113.55ZM82.65 113.55C82.65 113.7 82.5 114 82.35 114H79.95C79.8 114 79.65 113.85 79.65 113.55V112.35C79.65 112.2 79.8 111.9 79.95 111.9H82.35C82.5 111.9 82.65 112.05 82.65 112.35V113.55ZM84.15 108.9C84.45 108.9 84.75 109.2 84.75 109.5V110.7C84.75 111 84.45 111.3 84.15 111.3H52.35C52.05 111.3 51.75 111 51.75 110.7V109.5C51.75 109.2 52.05 108.9 52.35 108.9H84.15ZM87.15 89.4C87.15 89.55 87 89.7 87 89.7H86.1C86.1 89.7 85.95 89.55 85.95 89.4V83.55C85.95 83.4 86.1 83.25 86.1 83.25H87C87 83.25 87.15 83.4 87.15 83.55V89.4Z" fill="black"/>
<path d="M73.05 102.6C73.05 102.75 73.05 102.9 72.9 102.9H63.6C63.45 102.9 63.45 102.75 63.45 102.75C63.45 102.6 63.6 102.45 63.6 102.45H72.75C72.9 102.3 73.05 102.45 73.05 102.6Z" fill="black"/>
<path d="M54 54.1497C53.55 41.0997 42.75 30.4497 29.4 30.4497C15.9 30.4497 4.80002 41.5497 4.80002 55.0497C4.80002 60.5997 9.00002 70.3497 13.8 79.9497C13.95 80.3997 14.25 80.6997 14.4 81.1497C19.95 91.9497 26.25 102.3 28.2 105.45C28.5 105.9 28.95 106.05 29.4 106.05C29.85 106.05 30.3 105.75 30.6 105.45C32.55 102.15 38.85 91.9497 44.4 81.1497V80.9997C44.55 80.5497 44.85 80.2497 45 79.7997C45.15 79.4997 45.3 79.0497 45.6 78.7497C50.1 69.5997 53.85 60.5997 54 55.1997C54 55.0497 54 55.0497 54 54.8997C54 54.7497 54 54.4497 54 54.1497ZM45.45 76.3497C45 77.0997 44.7 77.9997 44.25 78.7497C44.1 79.1997 43.8 79.4997 43.65 79.9497C43.5 80.2497 43.2 80.6997 43.05 81.1497C37.65 91.6497 31.5 101.7 29.55 105C29.4 105.15 29.25 105.15 29.25 105C27.3 101.7 21.15 91.6497 15.6 81.1497C15.45 80.6997 15.15 80.3997 15 79.9497C10.2 70.3497 6.00002 60.5997 6.00002 55.1997C6.00002 42.2997 16.5 31.7997 29.4 31.7997C42 31.7997 52.35 41.8497 52.8 54.2997C52.8 54.5997 52.8 54.8997 52.8 55.1997C52.8 55.3497 52.8 55.3497 52.8 55.4997C52.65 60.1497 49.5 68.0997 45.45 76.3497Z" fill="black"/>
<path d="M29.55 66.9001C35.846 66.9001 40.95 61.7961 40.95 55.5001C40.95 49.2041 35.846 44.1001 29.55 44.1001C23.2539 44.1001 18.15 49.2041 18.15 55.5001C18.15 61.7961 23.2539 66.9001 29.55 66.9001Z" stroke="black" stroke-miterlimit="10"/>
</svg>
