<svg width="40" height="40" viewBox="0 0 40 40" fill="none" xmlns="http://www.w3.org/2000/svg">
<path d="M8 28.2799C8 27.9999 8 27.7199 8 27.4399C8.04 27.0399 8.12 26.6399 8.28 26.2799L16.52 24.4399C17.16 25.0799 17.64 25.9199 17.84 26.8399C19.96 25.9599 21.8 24.5999 23.28 22.9199C24.76 21.2399 25.88 19.2399 26.48 17.0399C25.52 16.9599 24.64 16.5599 23.92 15.9999L24.72 7.59993C25.08 7.39993 25.44 7.27993 25.84 7.19993C26.12 7.11993 26.4 7.07993 26.68 7.07993C29.44 6.91993 31.8 8.99993 32 11.7599C32.72 22.7999 24.32 32.2799 13.32 32.9999C10.52 33.1199 8.16 31.0399 8 28.2799Z" fill="white"/>
</svg>
