<svg width="200" height="200" viewBox="0 0 200 200" fill="none" xmlns="http://www.w3.org/2000/svg">
<path d="M166.8 62.1998H129.8C129.8 61.7998 130 61.1998 130 60.7998C130 51.9998 117.4 44.7998 101.8 44.7998C86.2 44.7998 73.6 51.9998 73.6 60.7998C73.6 61.3998 73.6 61.7998 73.8 62.1998H36.8C30.8 62.1998 25.8 67.1998 25.8 73.1998V102C25.8 105 27 107.8 29.2 109.8V150.4C29.2 153.2 31.4 155.4 34.2 155.4H169.4C172.2 155.4 174.4 153.2 174.4 150.4V109.8C176.4 107.8 177.8 105 177.8 101.8V73.1998C177.8 66.9998 172.8 62.1998 166.8 62.1998ZM101.8 46.5998C116.2 46.5998 128 52.7998 128 60.5998C128 61.1998 128 61.5998 127.8 61.9998H75.8C75.6 61.5998 75.6 60.9998 75.6 60.5998C75.6 52.9998 87.4 46.5998 101.8 46.5998ZM172.4 150.4C172.4 152 171 153.4 169.4 153.4H34.2C32.6 153.4 31.2 152 31.2 150.4V111.2C32.8 112.2 34.8 112.8 36.8 112.8H91V117.8C91 118.8 92.4 119.6 94 119.6H110.8C112.4 119.6 113.8 118.8 113.8 117.8V112.8H166.8C168.8 112.8 170.8 112.2 172.4 111.2V150.4ZM111.8 117.8C111.8 118.2 111.4 118.4 110.8 118.4H94C93.4 118.4 93 118.2 93 117.8V107.4C93 107 93.4 106.8 94 106.8H110.8C111.4 106.8 111.8 107 111.8 107.4V117.8ZM175.8 101.8C175.8 103.6 175.2 105.2 174.4 106.6C173.8 107.4 173.2 108.2 172.4 108.8C170.8 110 168.8 110.8 166.8 110.8H113.8V107.4C113.8 106.4 112.4 105.6 110.8 105.6H94C92.4 105.6 91 106.4 91 107.4V110.8H36.8C34.6 110.8 32.8 110 31.2 108.8C30.4 108.2 29.8 107.4 29.2 106.6C28.4 105.2 27.8 103.6 27.8 101.8V73.1998C27.8 68.1998 31.8 64.1998 36.8 64.1998H166.8C171.8 64.1998 175.8 68.1998 175.8 73.1998V101.8Z" fill="white"/>
</svg>
