<svg width="150" height="150" viewBox="0 0 150 150" fill="none" xmlns="http://www.w3.org/2000/svg">
<path d="M48.75 98.6997H29.7V132.3H48.75V98.6997Z" stroke="black" stroke-miterlimit="10" stroke-linecap="round"/>
<path d="M130.8 63.1499H111.75V132.3H130.8V63.1499Z" stroke="black" stroke-miterlimit="10" stroke-linecap="round"/>
<path d="M103.35 75.75H84.3V132.15H103.35V75.75Z" stroke="black" stroke-miterlimit="10" stroke-linecap="round"/>
<path d="M76.05 88.8003H57V132.3H76.05V88.8003Z" stroke="black" stroke-miterlimit="10" stroke-linecap="round"/>
<path d="M30 64.3499L23.4 67.7999L24.6 60.4499L19.35 55.1999L26.7 54.1499L30 47.3999L33.3 54.1499L40.65 55.1999L35.25 60.4499L36.6 67.7999L30 64.3499Z" stroke="black" stroke-miterlimit="10" stroke-linecap="round"/>
<path d="M54.75 53.1L46.2 57.6L47.85 48.15L40.95 41.4L50.55 40.05L54.75 31.5L58.95 40.05L68.55 41.4L61.65 48.15L63.3 57.6L54.75 53.1Z" stroke="black" stroke-miterlimit="10" stroke-linecap="round"/>
<path d="M85.65 41.2499L73.65 47.3999L75.9 34.1999L66.3 24.7499L79.65 22.7999L85.65 10.6499L91.5 22.7999L104.85 24.7499L95.25 34.1999L97.5 47.3999L85.65 41.2499Z" stroke="black" stroke-miterlimit="10" stroke-linecap="round"/>
<path d="M24.3 81C36.45 81.3 69.75 80.55 99.9 57.45C112.8 47.55 121.35 36.45 126.75 27.75" stroke="black" stroke-miterlimit="10" stroke-linecap="round"/>
<path d="M129.3 34.8L127.2 27L119.4 29.25" stroke="black" stroke-miterlimit="10" stroke-linecap="round" stroke-linejoin="round"/>
</svg>
