<svg width="100" height="100" viewBox="0 0 100 100" fill="none" xmlns="http://www.w3.org/2000/svg">
<path d="M91.2 84.8C88.7 86.9 86.3 88 84 88C83.8 88 83.5 88 83.3 87.9C81.4 87.7 80 86.8 78.7 85.9C77.4 85 76.2 84.2 74.5 84.2C72.2 84.1 71.5 84.5 70.5 85.3C68 87.4 65.6 88.5 63.4 88.5C63.2 88.5 62.9 88.5 62.7 88.4C60.8 88.2 59.4 87.3 58.1 86.4C56.8 85.5 55.6 84.7 53.9 84.7C53.1 84.7 52.4 84.7 51.4 85.1C51.4 85.1 51.1 85.2 49.3 86.4C47.9 87.3 46.8 87.9 44.7 87.9C44.5 87.9 44.2 87.9 44 87.8C42.1 87.6 40.7 86.7 39.4 85.8C38.1 84.9 36.9 84.1 35.2 84.1C32.9 84 32.2 84.4 31.2 85.2C28.7 87.3 26.3 88.4 24.1 88.4C23.8 88.4 23.6 88.4 23.4 88.3C21.5 88.1 20.1 87.2 18.8 86.3C17.5 85.4 16.3 84.6 14.6 84.6C13 84.6 11.2 85.3 9.6 86.7L8.7 85.6C10.6 84 12.6 83.2 14.7 83.2C16.8 83.3 18.3 84.3 19.6 85.2C22.4 87.1 22.8 86.8 23.6 87C25 87.2 27.3 87 30.5 84.2C31.7 83.2 32.7 82.7 34.9 82.7H35.4C37.5 82.7 39 83.7 40.4 84.6C41.6 85.4 42.7 86.2 44.3 86.4C45.5 86.5 46.4 86.5 47.7 85.8L49 84.9C50.2 84.1 49.3 84.7 50.1 84.1C50.3 84 50.5 83.9 51.4 83.5C52.3 83.1 53.1 83.1 54 83.1C56.1 83.2 57.6 84.2 59 85.1C61.8 87 62.2 86.7 62.9 86.9C64.3 87.1 66.6 86.9 69.8 84.1C71 83.1 72 82.6 74.2 82.6H74.7C76.8 82.6 78.3 83.6 79.7 84.5C80.9 85.3 82.1 86.1 83.6 86.3C85.7 86.5 88 85.6 90.5 83.5L91.2 84.8Z" fill="#E74336"/>
<path d="M90.3 74.6C87.9 76.7 85.6 77.6 83.5 77.4C81.9 77.2 80.8 76.5 79.6 75.6C78.2 74.7 76.8 73.7 74.6 73.7H74C71.8 73.7 70.8 74.2 69.6 75.2C68.2 76.4 67 77.2 66 77.6L74.3 51.4L74.6 50.4L73.7 49.9L68.5 47.4V29.5H64.1V18.6H57.6V13.6H50.3V6.09998H49.3V13.6H42V18.6H36V29.5H31.4V47.2L26 49.9L25.1 50.3L25.4 51.3L32.6 73.9C31.7 74.1 31 74.6 30.2 75.2C27 78 24.8 78.3 23.3 78C22.5 77.9 22.1 78.1 19.3 76.2C17.9 75.3 16.5 74.3 14.4 74.2C12.4 74.2 10.4 75 8.4 76.6L9.3 77.7C11 76.3 12.7 75.6 14.3 75.6C16 75.6 17.2 76.5 18.5 77.4C19.8 78.3 21.2 79.2 23.1 79.4C23.4 79.5 23.6 79.5 23.9 79.5C26.2 79.5 28.6 78.4 31 76.3C31.6 75.8 32.1 75.5 32.9 75.3C33.2 75.2 33.5 75.2 33.9 75.2C34.2 75.2 34.5 75.2 34.9 75.2C36.6 75.2 37.8 76.1 39.1 76.9C40.4 77.8 41.7 78.7 43.7 78.9C44 78.9 44.2 78.9 44.4 78.9C46.5 78.9 47.6 78.2 49 77.4C50.7 76.2 51.1 76.1 51.1 76.1C52.1 75.7 52.8 75.6 53.6 75.7C55.3 75.7 56.5 76.6 57.8 77.5C59.1 78.4 60.4 79.3 62.4 79.5C62.7 79.6 62.9 79.6 63.2 79.6C65.5 79.6 67.9 78.5 70.3 76.4C71.3 75.6 72 75.2 74.3 75.3C76 75.3 77.2 76.2 78.5 77C79.8 77.9 81.1 78.8 83.1 79C83.4 79 83.6 79 83.9 79C86.2 79 88.6 77.9 91.1 75.8L90.3 74.6ZM63.1 19.6V29.5H50.4V19.6H63.1ZM43.1 14.6H56.6V18.6H43.1V14.6ZM37.1 19.6H49.4V29.5H37.1V19.6ZM49.3 75.6C49.2 75.7 49 75.8 48.8 75.9L47.5 76.8C46.2 77.4 45.3 77.5 44.1 77.3C42.5 77.1 41.4 76.4 40.2 75.5C38.8 74.6 37.3 73.6 35.2 73.6H34.7C34.3 73.6 34 73.6 33.7 73.6L26.4 50.7L31.5 48.2L32.5 47.7L49.4 39.3V75.6H49.3ZM49.3 38.4L48.7 38.7L32.4 46.8V30.5H67.5V46.8L51 38.7L50.3 38.4L49.8 38.2L49.3 38.4ZM62.7 78C61.9 77.9 61.6 78.1 58.8 76.2C57.4 75.3 56 74.3 53.8 74.2C52.8 74.2 52.1 74.2 51.2 74.6C50.8 74.8 50.5 74.9 50.3 75V39.5L67.6 48L68.6 48.5L73.4 50.9L64.8 77.9C64 78.1 63.3 78.1 62.7 78Z" fill="#E74336"/>
</svg>
