<svg width="150" height="150" viewBox="0 0 150 150" fill="none" xmlns="http://www.w3.org/2000/svg">
<path d="M76.5 73.5V38.25" stroke="black" stroke-miterlimit="10" stroke-linecap="round"/>
<path d="M61.2 88.65L76.5 73.5" stroke="black" stroke-miterlimit="10" stroke-linecap="round"/>
<path d="M102.15 37.0497C103.144 37.0497 103.95 36.2438 103.95 35.2497C103.95 34.2556 103.144 33.4497 102.15 33.4497C101.156 33.4497 100.35 34.2556 100.35 35.2497C100.35 36.2438 101.156 37.0497 102.15 37.0497Z" fill="black"/>
<path d="M118.05 55.35C119.044 55.35 119.85 54.5441 119.85 53.55C119.85 52.5559 119.044 51.75 118.05 51.75C117.056 51.75 116.25 52.5559 116.25 53.55C116.25 54.5441 117.056 55.35 118.05 55.35Z" fill="black"/>
<path d="M122.7 75.2997C123.694 75.2997 124.5 74.4938 124.5 73.4997C124.5 72.5056 123.694 71.6997 122.7 71.6997C121.706 71.6997 120.9 72.5056 120.9 73.4997C120.9 74.4938 121.706 75.2997 122.7 75.2997Z" fill="black"/>
<path d="M115.5 100.05C116.494 100.05 117.3 99.2438 117.3 98.2497C117.3 97.2556 116.494 96.4497 115.5 96.4497C114.506 96.4497 113.7 97.2556 113.7 98.2497C113.7 99.2438 114.506 100.05 115.5 100.05Z" fill="black"/>
<path d="M100.65 114.75C101.644 114.75 102.45 113.944 102.45 112.95C102.45 111.956 101.644 111.15 100.65 111.15C99.6559 111.15 98.85 111.956 98.85 112.95C98.85 113.944 99.6559 114.75 100.65 114.75Z" fill="black"/>
<path d="M76.5 121.5C77.4941 121.5 78.3 120.694 78.3 119.7C78.3 118.706 77.4941 117.9 76.5 117.9C75.5059 117.9 74.7 118.706 74.7 119.7C74.7 120.694 75.5059 121.5 76.5 121.5Z" fill="black"/>
<path d="M52.65 18.9001C60 15.7501 67.95 14.1001 76.5 14.1001C109.35 14.1001 135.9 40.8001 135.9 73.5001C135.9 106.2 109.35 132.9 76.5 132.9C43.65 132.9 16.95 106.35 16.95 73.5001C16.95 54.9001 25.5 38.4001 38.85 27.4501" stroke="black" stroke-miterlimit="10" stroke-linecap="round" stroke-linejoin="round"/>
</svg>
