<svg width="104" height="74" viewBox="0 0 104 74" fill="none" xmlns="http://www.w3.org/2000/svg">
<path d="M13.4623 61.272L14.128 60.606L13.4623 59.94" fill="#E74336"/>
<path d="M78.037 68.598C74.1166 68.598 70.862 65.416 70.862 61.42C70.862 57.424 74.0426 54.242 78.037 54.242C81.9573 54.242 85.2119 57.424 85.2119 61.42C85.2119 65.416 82.0313 68.598 78.037 68.598ZM78.037 55.352C74.7084 55.352 71.9715 58.09 71.9715 61.42C71.9715 64.75 74.7084 67.488 78.037 67.488C81.3655 67.488 84.1024 64.75 84.1024 61.42C84.1024 58.09 81.4395 55.352 78.037 55.352Z" fill="#E74336"/>
<path d="M78.0369 64.232C76.4836 64.232 75.2261 62.974 75.2261 61.42C75.2261 59.866 76.4836 58.608 78.0369 58.608C79.5903 58.608 80.8478 59.866 80.8478 61.42C80.8478 62.974 79.5903 64.232 78.0369 64.232ZM78.0369 59.718C77.0754 59.718 76.2617 60.532 76.2617 61.494C76.2617 62.456 77.0754 63.27 78.0369 63.27C78.9985 63.27 79.8122 62.456 79.8122 61.494C79.8122 60.532 78.9985 59.718 78.0369 59.718Z" fill="#E74336"/>
<path d="M23.0782 68.598C19.1579 68.598 15.9033 65.416 15.9033 61.42C15.9033 57.424 19.0839 54.242 23.0782 54.242C27.0725 54.242 30.2532 57.424 30.2532 61.42C30.2532 65.416 26.9986 68.598 23.0782 68.598ZM23.0782 55.352C19.7496 55.352 17.0128 58.09 17.0128 61.42C17.0128 64.75 19.7496 67.488 23.0782 67.488C26.4068 67.488 29.1437 64.75 29.1437 61.42C29.1437 58.09 26.4068 55.352 23.0782 55.352Z" fill="#E74336"/>
<path d="M23.0782 64.232C21.5249 64.232 20.2674 62.974 20.2674 61.42C20.2674 59.866 21.5249 58.608 23.0782 58.608C24.6316 58.608 25.889 59.94 25.889 61.494C25.889 63.048 24.6316 64.232 23.0782 64.232ZM23.0782 59.718C22.1166 59.718 21.303 60.532 21.303 61.494C21.303 62.456 22.1166 63.27 23.0782 63.27C24.0398 63.27 24.8535 62.456 24.8535 61.494C24.8535 60.532 24.0398 59.718 23.0782 59.718Z" fill="#E74336"/>
<path d="M93.6444 68.598C89.724 68.598 86.4694 65.416 86.4694 61.42C86.4694 57.424 89.6501 54.242 93.6444 54.242C97.5647 54.242 100.819 57.424 100.819 61.42C100.819 65.416 97.5647 68.598 93.6444 68.598ZM93.6444 55.352C90.3158 55.352 87.579 58.09 87.579 61.42C87.579 64.75 90.3158 67.488 93.6444 67.488C96.973 67.488 99.7098 64.75 99.7098 61.42C99.7098 58.09 96.973 55.352 93.6444 55.352Z" fill="#E74336"/>
<path d="M93.6444 64.232C92.091 64.232 90.8336 62.974 90.8336 61.42C90.8336 59.866 92.091 58.608 93.6444 58.608C95.1977 58.608 96.4552 59.866 96.4552 61.42C96.4552 62.974 95.1977 64.232 93.6444 64.232ZM93.6444 59.718C92.6828 59.718 91.8691 60.532 91.8691 61.494C91.8691 62.456 92.6828 63.27 93.6444 63.27C94.606 63.27 95.4196 62.456 95.4196 61.494C95.4196 60.532 94.606 59.718 93.6444 59.718Z" fill="#E74336"/>
<path d="M66.4239 60.31H45.7126C44.6031 60.31 43.7155 61.198 43.7155 62.308V63.048H32.7681C32.2503 63.048 31.9545 63.344 31.9545 63.714C31.9545 64.084 32.2503 64.38 32.7681 64.38H43.7155V65.12C43.7155 66.23 44.6031 67.118 45.7126 67.118H66.4979C67.6074 67.118 68.495 66.23 68.495 65.12V62.308C68.421 61.272 67.5334 60.31 66.4239 60.31ZM67.0896 65.194C67.0896 65.564 66.7937 65.86 66.4239 65.86H45.7126C45.3428 65.86 45.0469 65.564 45.0469 65.194V62.382C45.0469 62.012 45.3428 61.716 45.7126 61.716H66.4979C66.8677 61.716 67.1636 62.012 67.1636 62.382V65.194H67.0896Z" fill="#E74336"/>
<path d="M32.7681 64.38L31.9545 63.788L32.7681 63.048" fill="#E74336"/>
<path d="M32.7681 63.048C32.2503 63.048 31.9545 63.344 31.9545 63.714L32.7681 63.048Z" fill="#E74336"/>
<path d="M32.7681 64.38C32.2503 64.38 31.9545 64.084 31.9545 63.714L32.7681 64.38Z" fill="#E74336"/>
<path d="M102.151 54.612C101.781 54.242 101.411 53.946 101.041 53.576C99.1181 52.096 96.5292 51.208 93.6444 51.208C90.7596 51.208 88.0967 52.096 86.2475 53.576C86.0996 53.65 85.9516 53.724 85.8777 53.872C85.7297 53.798 85.6558 53.65 85.5078 53.576C83.5846 52.096 80.9957 51.208 78.1109 51.208C75.2262 51.208 72.5633 52.096 70.7141 53.576H32.99V52.762C32.99 52.614 32.9161 52.392 32.8421 52.244H48.1536C49.2632 52.244 50.1508 51.578 50.1508 50.764V20.054C50.1508 19.24 49.2632 18.574 48.1536 18.574H7.84068L16.7909 6.88201H48.8933C49.2632 6.88201 49.559 6.66001 49.559 6.36401C49.559 6.06801 49.2632 5.84601 48.8933 5.84601H16.4211C16.1991 5.84601 15.9772 5.92001 15.8293 6.06801L5.76956 19.24C5.54765 19.462 5.39972 19.758 5.39972 20.054V23.162C5.39972 23.68 5.99147 24.124 6.73115 24.124H6.80512V32.856H6.73115C5.99147 32.856 5.39972 33.3 5.39972 33.818V37.814C5.39972 38.184 5.54765 38.554 5.76956 38.85C5.99147 39.146 6.36131 39.368 6.73115 39.368V49.432C6.73115 49.58 6.65718 49.728 6.43528 49.876C6.36131 49.876 6.36131 49.876 6.28734 49.95C5.84353 50.098 5.54765 50.394 5.39972 50.764C5.32575 50.912 5.25178 51.134 5.25178 51.282V53.65H1.99715C0.887624 53.65 0 54.316 0 55.13V59.792C0 60.606 0.887624 61.272 1.99715 61.272H13.3883C13.7582 61.272 14.0541 61.05 14.0541 60.754C14.0541 60.458 13.7582 60.236 13.3883 60.236H1.99715C1.62731 60.236 1.33144 60.014 1.33144 59.718V55.056C1.33144 54.76 1.62731 54.538 1.99715 54.538H13.0925C13.3883 54.538 13.6842 54.464 13.9061 54.316C14.276 54.168 14.4239 53.872 14.4239 53.502V52.688C14.4239 52.392 14.7198 52.17 15.0896 52.17H30.9929C31.3627 52.17 31.6586 52.392 31.6586 52.688V53.502C31.6586 54.02 32.2504 54.538 32.99 54.538H71.2319C71.6757 54.168 72.1195 53.798 72.7112 53.502C74.1906 52.688 76.0398 52.17 78.1109 52.17C80.1081 52.17 81.9573 52.688 83.4367 53.502C83.9545 53.798 84.4723 54.094 84.9161 54.538C84.99 54.538 84.99 54.612 84.99 54.612C85.2859 54.908 85.5818 55.204 85.8037 55.5C86.0256 55.204 86.3215 54.908 86.6173 54.612C86.6913 54.612 86.6913 54.538 86.6913 54.538C87.1351 54.168 87.5789 53.798 88.1707 53.502C89.6501 52.688 91.4993 52.17 93.5704 52.17C95.5676 52.17 97.4168 52.688 98.9701 53.502C99.4879 53.798 100.006 54.094 100.45 54.538C101.855 55.722 102.669 57.276 102.669 58.978C102.669 59.274 102.964 59.496 103.334 59.496C103.704 59.496 104 59.274 104 58.978C104 57.424 103.334 55.87 102.151 54.612ZM14.7937 51.282C13.9061 51.282 13.1664 51.948 13.0925 52.244C13.0185 52.392 13.0185 52.614 13.0185 52.762V53.576H6.65718V51.208C6.65718 51.06 6.65718 50.986 6.80512 50.838C6.87909 50.764 6.95306 50.69 7.101 50.69C7.61878 50.468 7.98862 50.098 8.13656 49.654C8.13656 49.58 8.13656 49.506 8.13656 49.358V39.294C8.13656 38.628 7.61878 38.11 6.80512 37.888V33.744H26.1849C27.0725 33.744 27.8122 33.078 27.8122 32.338V24.568C27.8122 23.828 27.0725 23.162 26.1849 23.162H6.73115V20.054C6.73115 19.98 6.73115 19.906 6.80512 19.832L6.87909 19.758C7.02703 19.61 7.17496 19.536 7.39687 19.536H48.1536C48.5235 19.536 48.8193 19.758 48.8193 20.054V50.764C48.8193 51.06 48.5235 51.282 48.1536 51.282H14.7937ZM8.21053 32.856V24.124H26.1849C26.4808 24.124 26.7767 24.346 26.7767 24.568V32.338C26.7767 32.56 26.5548 32.782 26.1849 32.782H8.21053V32.856Z" fill="#E74336"/>
<path d="M48.8933 10.508H21.7468C21.4509 10.508 21.229 10.36 21.229 10.138C21.229 9.91601 21.4509 9.76801 21.7468 9.76801H48.8933C49.1892 9.76801 49.4111 9.91601 49.4111 10.138C49.4111 10.36 49.1892 10.508 48.8933 10.508Z" fill="#E74336"/>
<path d="M48.8933 14.726H38.9075C38.6117 14.726 38.3898 14.578 38.3898 14.356C38.3898 14.134 38.6117 13.986 38.9075 13.986H48.8933C49.1892 13.986 49.4111 14.134 49.4111 14.356C49.4111 14.578 49.1892 14.726 48.8933 14.726Z" fill="#E74336"/>
<path d="M26.7027 36.704H23.8179C23.522 36.704 23.3001 36.556 23.3001 36.334C23.3001 36.112 23.522 35.964 23.8179 35.964H26.7027C26.9986 35.964 27.2205 36.112 27.2205 36.334C27.2205 36.556 26.9986 36.704 26.7027 36.704Z" fill="#E74336"/>
</svg>
