<svg width="200" height="200" viewBox="0 0 200 200" fill="none" xmlns="http://www.w3.org/2000/svg">
<path d="M117.8 125.2H81C80.6 125.2 80.2 124.8 80.2 124.2C80.2 123.6 80.6 123.2 81 123.2H117.6C118 123.2 118.4 123.6 118.4 124.2C118.4 124.8 118.2 125.2 117.8 125.2Z" fill="white"/>
<path d="M115.4 137.6H83.4C83 137.6 82.6 137.2 82.6 136.6C82.6 136 83 135.6 83.4 135.6H115.2C115.6 135.6 116 136 116 136.6C116 137.2 115.8 137.6 115.4 137.6Z" fill="white"/>
<path d="M173.6 45.6001H170C168.6 45.6001 167.4 47.0001 167.4 48.6001V51.0001H162.2V42.4001C162.2 39.6001 160 37.4001 157.2 37.4001H150.4V21.6001C150.4 21.0001 150 20.6001 149.4 20.6001H144.4C143.8 20.6001 143.4 21.0001 143.4 21.6001V37.4001H140L136 27.6001C135.8 27.2001 135.4 27.0001 135 27.0001H64.4C64 27.0001 63.6 27.2001 63.4 27.6001L59.4 37.4001H56V21.6001C56 21.0001 55.6 20.6001 55 20.6001H50C49.4 20.6001 49 21.0001 49 21.6001V37.4001H42.4C39.6 37.4001 37.4 39.6001 37.4 42.4001V51.0001H31.2V48.6001C31.2 46.8001 30 45.6001 28.6 45.6001H24.8C23.4 45.6001 22.2 47.0001 22.2 48.6001V72.0001C22.2 73.8001 23.4 75.0001 24.8 75.0001H28.6C30.2 75.0001 31.2 73.6001 31.2 71.8001V53.0001H37.4V85.2001C37.4 86.4001 37.8 87.6001 38.6 88.4001C37.6 90.8001 37 93.2001 37 96.0001V141.4C37 143.4 37.4 145.6 38 147.4H36.6C34.4 147.4 32.6 149.4 32.6 152V157C32.6 159.6 34.4 161.6 36.6 161.6H40.8C40.6 162 40.6 162.6 40.6 163.2V168C40.6 170 42 171.6 43.8 171.6H53.4C55.2 171.6 56.6 170 56.6 168V163.2C56.6 162.6 56.4 162 56.2 161.6H142.6C142.2 162 142 162.6 142 163.2V168C142 170 143.4 171.6 145.2 171.6H154.8C156.6 171.6 158 170 158 168V163.2C158 162.6 157.8 162 157.6 161.6H162.4C164.6 161.6 166.4 159.6 166.4 157V152C166.4 149.4 164.6 147.4 162.4 147.4H161C161.6 145.4 162 143.4 162 141.4V96.2001C162 93.6001 161.4 91.0001 160.6 88.8001C161.6 87.8001 162.2 86.6001 162.2 85.2001V53.0001H167.4V71.8001C167.4 73.6001 168.4 75.0001 170 75.0001H173.8C175.2 75.0001 176.4 73.6001 176.4 72.0001V48.6001C176.2 47.0001 175.2 45.6001 173.6 45.6001ZM29 71.8001C29 72.6001 28.6 73.0001 28.4 73.0001H24.6C24.4 73.0001 24 72.6001 24 72.0001V48.6001C24 48.0001 24.4 47.6001 24.6 47.6001H28.4C28.6 47.6001 29 48.0001 29 48.6001V71.8001ZM153.6 128.4C152 123.8 150.2 117.2 148.8 107.8H160.4V128.4H153.6ZM160.2 130.4V137.8C158.6 137.2 156.4 135.2 154.2 130.4H160.2ZM148.4 105.8C148 103.4 147.6 100.8 147.4 98.0001C147.4 97.8001 147.4 97.8001 147.4 97.6001H160.4V105.8H148.4ZM145.4 22.6001H148.4V37.4001H145.4V22.6001ZM65.2 29.0001H134.4L137.8 37.4001H61.6L65.2 29.0001ZM51 22.6001H54V37.4001H51V22.6001ZM39.4 42.4001C39.4 40.8001 40.8 39.4001 42.4 39.4001H157C158.6 39.4001 160 40.8001 160 42.4001V85.2001C160 85.8001 159.8 86.4001 159.6 86.8001C159.2 87.4001 158.8 87.8001 158.2 88.0001C157.8 88.2001 157.4 88.2001 157 88.2001H42.4C41.8 88.2001 41.2 88.0001 40.8 87.8001C40.2 87.4001 39.8 87.0001 39.6 86.2001C39.4 85.8001 39.4 85.4001 39.4 85.2001V42.4001ZM38.8 97.6001H51.6C51.4 99.8001 51 102.6 50.6 105.8H38.8V97.6001ZM38.8 107.8H50.2C49.2 114.6 47.4 122.4 45.2 128.4H38.8V107.8ZM38.8 130.4H44.4C42.8 134.2 40.8 137 38.8 137.8V130.4ZM38.8 139.8C49.8 136.8 53.2 98.4001 53.4 96.6001C53.4 96.4001 53.4 96.0001 53.2 95.8001C53 95.6001 52.8 95.4001 52.6 95.4001H38.8C38.8 93.2001 39.2 91.2001 40 89.4001C40.8 89.8001 41.6 90.0001 42.4 90.0001H157C157.8 90.0001 158.4 89.8001 159 89.6001C159.6 91.4001 160 93.4001 160.2 95.4001H146.2C145.6 95.4001 145.2 95.8001 145.2 96.4001C145.2 96.4001 145.2 96.6001 145.2 96.8001C145.2 97.0001 145.2 97.4001 145.4 98.0001C148.6 124.4 153.6 138.4 160.2 139.8V141.2C160.2 143.2 159.8 145.2 159 147.2H126.6C126.8 146.8 126.8 146.6 126.8 146.2V114.2C126.8 112.4 125.8 111.2 124.2 111.2H74.8C73.2 111.2 72.2 112.4 72.2 114.2V146.2C72.2 146.6 72.2 146.8 72.4 147.2H39.8C39 145.4 38.8 143.4 38.8 141.2V139.8ZM125 114.4V146.4C125 146.8 124.4 147.4 124.2 147.4H74.8C74.2 147.4 74 147 74 146.4V114.4C74 113.8 74.4 113.4 74.8 113.4H124.2C124.6 113.4 125 113.8 125 114.4ZM54.6 168C54.6 168.8 54 169.6 53.2 169.6H43.6C42.8 169.6 42.2 168.8 42.2 168V163.2C42.2 161.6 42.6 161.6 43.6 161.6H53.2C54 161.6 54.6 162.4 54.6 163.2V168ZM156.2 168C156.2 168.8 155.6 169.6 154.8 169.6H145.2C144.4 169.6 143.8 168.8 143.8 168V163.2C143.8 162.4 144.4 161.6 145.2 161.6H154.8C155.6 161.6 156.2 162.4 156.2 163.2V168ZM162.4 149.4C163.6 149.4 164.6 150.6 164.6 152V157C164.6 158.4 163.6 159.6 162.4 159.6H36.4C35.2 159.6 34.2 158.4 34.2 157V152C34.2 150.6 35.2 149.4 36.4 149.4H162.4ZM174.2 72.0001C174.2 72.6001 173.8 73.0001 173.6 73.0001H170C169.8 73.0001 169.4 72.6001 169.4 71.8001V48.6001C169.4 48.0001 169.8 47.6001 170 47.6001H173.8C174 47.6001 174.4 48.0001 174.4 48.6001V72.0001H174.2Z" fill="white"/>
</svg>
