<svg width="100" height="100" viewBox="0 0 100 100" fill="none" xmlns="http://www.w3.org/2000/svg">
<path d="M97.1 47C95.2 23.1 74.7 4.30001 50.3 4.20001V3.40001C50.3 3.00001 50 2.70001 49.7 2.70001C49.4 2.70001 49.1 3.00001 49.1 3.40001V4.20001C25 4.60001 5.20001 22.5 2.90001 46.2L2.70001 48.5L4.00001 46.7C6.80001 43 11.1 40.8 15.8 40.8C19.9 40.8 23.9 42.5 26.7 45.6L27.1 46.1L27.5 45.6C30.4 42.5 34.2 40.8 38.4 40.8C42.5 40.8 46.3 42.4 49.2 45.5V84.5C49 90.9 44.6 95.9 39.7 95.9C35.1 95.9 31.2 92 30.4 86.8H29C29.9 92.8 34.3 97.3 39.6 97.3C45.5 97.3 50.4 91.6 50.4 84.5V45.5C53.2 42.6 57.1 40.9 61.1 40.9C65.3 40.9 69.1 42.6 72 45.7L72.4 46.2L72.8 45.7C75.6 42.6 79.5 40.9 83.7 40.9C88.7 40.9 93.3 43.4 96.1 47.6L97.4 49.5L97.1 47ZM83.7 39.4C79.4 39.4 75.4 41.1 72.4 44.1C69.4 41 65.4 39.4 61.1 39.4C57.1 39.4 53.3 40.9 50.4 43.6C50.2 43.8 50 44 49.8 44.2C49.6 44 49.4 43.8 49.2 43.6C46.2 40.9 42.5 39.4 38.4 39.4C34.1 39.4 30.1 41.1 27.1 44.1C24.1 41.1 20 39.4 15.8 39.4C11.5 39.4 7.40001 41.1 4.40001 44.2C7.60001 22.3 26.4 6.00001 49.1 5.60001C49.4 5.60001 49.7 5.60001 50 5.60001C50.1 5.60001 50.2 5.60001 50.4 5.60001C73.4 5.80001 92.8 22.8 95.7 44.9C92.6 41.4 88.3 39.4 83.7 39.4Z" fill="#E74336" stroke="#E74336" stroke-width="2" stroke-miterlimit="10"/>
</svg>
