<svg width="200" height="200" viewBox="0 0 200 200" fill="none" xmlns="http://www.w3.org/2000/svg">
<path d="M152.8 27.0001L152.2 26.4001C152 26.2001 151.8 26.2001 151.6 26.2001H104.4C103.2 24.0001 101.2 22.6001 99 22.6001C96.8 22.6001 94.6 24.0001 93.6 26.2001H48C47.8 26.2001 47.4 26.4001 47.4 26.6001C47.2 26.8001 47 27.0001 47 27.2001V172.8C47 173.4 47.4 173.8 48 173.8H151.6C151.8 173.8 152.2 173.8 152.2 173.6L152.8 173C153 172.8 153.2 172.6 153.2 172.2V27.6001C153 27.4001 153 27.2001 152.8 27.0001ZM83.6 28.2001H93C92.8 28.8001 92.8 29.4001 92.8 30.2001V31.2001H105.6V30.2001C105.6 29.6001 105.6 28.8001 105.4 28.2001H114.8V32.6001C114.8 33.4001 114 34.2001 113.2 34.2001H85.2C84.4 34.2001 83.6 33.4001 83.6 32.6001V28.2001ZM81.6 28.2001V32.6001C81.6 34.6001 83.2 36.2001 85.2 36.2001H113C115 36.2001 116.6 34.6001 116.6 32.6001V28.2001H125L114 39.0001C113.6 39.4001 113.2 39.6001 112.6 39.6001H85.6C85 39.6001 84.6 39.4001 84.2 39.0001L73.2 28.2001H81.6ZM151 171.8H49V28.2001H70.4L83.4 41.0001C83.8 41.4001 84.2 41.6001 84.8 41.6001H113.2C113.8 41.6001 114.2 41.4001 114.6 41.0001L127.6 28.2001H151V171.8Z" fill="white"/>
<path d="M91.6 76.6001H137.4" stroke="white" stroke-miterlimit="10"/>
<path d="M91.6 97.2002H137.4" stroke="white" stroke-miterlimit="10"/>
<path d="M91.6 117.8H137.4" stroke="white" stroke-miterlimit="10"/>
<path d="M91.6 138.4H137.4" stroke="white" stroke-miterlimit="10"/>
<path d="M77.8 64L66.4 75.4L59.4 68.4" stroke="white" stroke-miterlimit="10"/>
<path d="M77.8 83.7998L66.4 95.1998L59.4 88.1998" stroke="white" stroke-miterlimit="10"/>
<path d="M77.8 103.6L66.4 115L59.4 108" stroke="white" stroke-miterlimit="10"/>
<path d="M75.2 125.4H62.2V138.4H75.2V125.4Z" stroke="white" stroke-miterlimit="10"/>
</svg>
